<?xml version="1.0" encoding="UTF-8"?>
<svg version="1.1" xmlns="http://www.w3.org/2000/svg" width="500" height="500">
<path d="M0 0 C165 0 330 0 500 0 C500 165 500 330 500 500 C335 500 170 500 0 500 C0 335 0 170 0 0 Z " fill="#CFCFCF" transform="translate(0,0)"/>
<path d="M0 0 C15.17018762 -0.09403095 30.34036172 -0.1642638 45.51077652 -0.20724869 C52.55692622 -0.22775042 59.60289338 -0.25562913 66.64892578 -0.30175781 C73.46356656 -0.34634982 80.27801867 -0.36921571 87.09279633 -0.37950897 C89.67758903 -0.38683344 92.26237278 -0.40113379 94.84708405 -0.42292023 C122.92534334 -0.64992681 146.275972 2.28297855 167.32421875 22.19921875 C177.18713891 32.33006203 185.14355173 46.59398536 185 61 C185.62116699 60.98952637 186.24233398 60.97905273 186.88232422 60.96826172 C231.39224595 60.3257834 271.81267475 65.25284933 305.703125 96.71484375 C323.03276777 113.95606998 332.55019974 137.11676746 336 161 C336.27650391 162.68609375 336.27650391 162.68609375 336.55859375 164.40625 C340.45445784 196.12478945 332.80306249 229.55538032 313.3125 254.9375 C296.67062223 275.09977499 276.36421721 286.4466046 252 295 C256.6929786 299.98128445 261.73569566 304.34840234 267.07421875 308.625 C268.98111954 310.17292481 270.86078779 311.75520775 272.70703125 313.375 C286.20524465 325.15525897 301.15459677 333.95664374 318 340 C319.00675781 340.36609375 320.01351563 340.7321875 321.05078125 341.109375 C332.02983429 344.4249036 343.64798783 344.26851014 355 344 C355 345.32 355 346.64 355 348 C352.98007005 348.4829607 350.95900646 348.96118112 348.9375 349.4375 C347.24947266 349.83775391 347.24947266 349.83775391 345.52734375 350.24609375 C314.18266174 356.94545546 283.92907578 349.38082029 257 333 C252.85394081 330.16854494 248.90944826 327.14807782 245 324 C243.63101563 322.91912109 243.63101563 322.91912109 242.234375 321.81640625 C225.02525811 308.02452828 225.02525811 308.02452828 220.03059387 301.38008118 C215.49176763 297.81550758 211.40473185 298.2951252 205.78393555 298.34057617 C204.65179123 298.33009247 203.51964691 298.31960876 202.35319519 298.30880737 C198.61409203 298.28002484 194.875913 298.2863532 191.13671875 298.29296875 C188.54310443 298.27985578 185.94950032 298.2645528 183.35591125 298.24714661 C177.22904107 298.21131567 171.10248625 298.19755947 164.97552377 298.1945222 C157.9984084 298.18982986 151.02151517 298.15690104 144.04449785 298.12162435 C129.69636645 298.04970972 115.34829953 298.01317628 101 298 C101 297.01 101 296.02 101 295 C102.2684375 294.88785156 102.2684375 294.88785156 103.5625 294.7734375 C110.91461558 293.92126047 117.08413127 292.90816706 122 287 C125.32603195 281.58580505 126.5970332 277.09511404 126.58105469 270.78320312 C126.59448914 270.00484604 126.60792358 269.22648895 126.62176514 268.42454529 C126.65946 265.87651375 126.66755798 263.32954217 126.671875 260.78125 C126.68474536 258.99580466 126.69820313 257.21036347 126.71221924 255.42492676 C126.73609513 251.69285299 126.74358779 247.96114859 126.74121094 244.22900391 C126.74080394 239.46029598 126.79549262 234.69396382 126.86429977 229.9258194 C126.90889075 226.24185421 126.91688472 222.55845969 126.91477203 218.87425232 C126.91947285 217.11681396 126.93705777 215.35935855 126.9681015 213.60218811 C127.37907861 203.99102823 127.37907861 203.99102823 124.23445129 195.18122864 C122.25764466 193.19142748 120.29572021 191.5989349 118 190 C116.70877162 188.58079146 115.43093557 187.1487637 114.1875 185.6875 C112.60773065 183.83755632 111.06953524 182.06569881 109.30078125 180.39453125 C108 179 108 179 108 177 C121.53 177 135.06 177 149 177 C149.33 179.97 149.66 182.94 150 186 C151.84274461 188.56065931 153.39565101 190.42949742 155.625 192.5625 C156.73245404 193.68813031 157.83922928 194.81442889 158.9453125 195.94140625 C159.47801758 196.47137207 160.01072266 197.00133789 160.55957031 197.54736328 C162.2929816 199.29546449 163.90600766 201.12448164 165.5 203 C170.0258267 208.22886774 174.76298492 213.26517709 179.46240234 218.33740234 C181.83708074 220.90513176 184.20048145 223.4831282 186.5625 226.0625 C187.01206055 226.55331055 187.46162109 227.04412109 187.92480469 227.54980469 C188.83030793 228.53851282 189.73574434 229.52728217 190.64111328 230.51611328 C193.38668634 233.51424354 196.13417291 236.51062106 198.88183594 239.50683594 C201.13813513 241.96752741 203.39266143 244.42978156 205.64453125 246.89453125 C208.4242574 249.93472954 211.20929317 252.96988323 214 256 C214.54027832 256.5868457 215.08055664 257.17369141 215.63720703 257.77832031 C219.14063601 261.57678541 222.67408815 265.34454906 226.22705078 269.09667969 C228.00706516 271.00758469 229.7369589 272.95602201 231.46484375 274.9140625 C236.5589204 280.9315955 236.5589204 280.9315955 243.25 284.640625 C245.87655658 284.22276373 247.6581685 283.27963091 250 282 C251.23793103 281.43231481 252.47913241 280.87173334 253.72265625 280.31640625 C278.25064465 269.05137544 294.10678842 250.55615908 303.734375 225.63671875 C315.81587522 192.5686778 313.72818874 154.91097258 299.00927734 123.04589844 C294.18741358 113.27153503 287.69087815 104.7047606 280 97 C279.08347656 96.06607422 279.08347656 96.06607422 278.1484375 95.11328125 C257.95361029 75.99264698 231.05632245 72.8414351 204.625 72.375 C202.80987934 72.33671179 200.99477473 72.29765429 199.1796875 72.2578125 C194.78659259 72.16302624 190.39341345 72.0785793 186 72 C186.00713768 72.90492188 186.00713768 72.90492188 186.01441956 73.828125 C186.01812057 74.62734375 186.02182159 75.4265625 186.02563477 76.25 C186.03277245 77.43335938 186.03277245 77.43335938 186.04005432 78.640625 C185.65475878 101.33622034 174.48502889 121.08511969 158.67578125 136.66015625 C156 139 156 139 152.73046875 141.12109375 C149.74050688 142.77470681 149.74050688 142.77470681 149 146 C139.58562291 146.04639386 130.17128534 146.08190501 120.75681877 146.10362434 C116.38503855 146.1140499 112.01333669 146.12818665 107.64160156 146.15087891 C103.42057655 146.17265111 99.1996268 146.18457787 94.97854996 146.18975449 C93.37024883 146.19344239 91.7619517 146.20064393 90.15368271 146.21146011 C87.89647351 146.22603332 85.63957309 146.22797552 83.38232422 146.22705078 C82.09881073 146.231492 80.81529724 146.23593323 79.4928894 146.24050903 C75.9991332 145.99994031 73.25198913 145.26283591 70 144 C70 142.35 70 140.7 70 139 C71.15447632 138.97812622 71.15447632 138.97812622 72.33227539 138.95581055 C89.99925601 138.58199705 105.95107077 137.80710405 122.70703125 131.76953125 C125 131 125 131 127 131 C127 111.53 127 92.06 127 72 C122.194375 72.4125 117.38875 72.825 112.4375 73.25 C110.21471313 73.43030762 110.21471313 73.43030762 107.94702148 73.61425781 C95.59296017 74.74542986 83.58034637 77.00477394 72.5 82.875 C71.86320312 83.18824219 71.22640625 83.50148438 70.5703125 83.82421875 C68.65393154 84.80587512 66.83690513 85.87693504 65 87 C64.38732773 87.36256897 63.77465546 87.72513794 63.14341736 88.09869385 C60.07982513 90.25402006 58.28201444 91.87881159 57.34976196 95.58511353 C57.09317596 98.80147092 57.05689507 101.95331977 57.09765625 105.1796875 C57.08536484 106.3475882 57.07307343 107.51548889 57.06040955 108.71878052 C57.02869164 112.43816042 57.04495546 116.15555828 57.0625 119.875 C57.04939064 122.40106009 57.03315064 124.927106 57.01367188 127.453125 C56.96695033 133.63662 56.98514271 139.81512211 57 146 C48.09 146 39.18 146 30 146 C30.00112793 142.29604004 30.00225586 138.59208008 30.00341797 134.77587891 C30.00278974 122.52224159 29.96959289 110.2688727 29.9197216 98.01534462 C29.89028339 90.58779209 29.87188086 83.16052452 29.87988281 75.73291016 C29.88683271 69.255414 29.87264351 62.77835927 29.83356392 56.30097139 C29.81361511 52.87429442 29.80391727 49.44830961 29.81957626 46.021595 C29.83177516 42.18639923 29.80661446 38.35309676 29.77294922 34.51806641 C29.78517014 33.39452759 29.79739105 32.27098877 29.8099823 31.11340332 C29.68764095 23.35165977 27.76802041 18.15357696 23 12 C20.71171338 9.73346562 20.71171338 9.73346562 18.3125 8.4375 C17.56613281 7.98246094 16.81976563 7.52742188 16.05078125 7.05859375 C12.46988081 5.21016704 9.28151035 4.76435968 5.3125 4.4375 C4.31863281 4.35371094 3.32476562 4.26992187 2.30078125 4.18359375 C1.16189453 4.09271484 1.16189453 4.09271484 0 4 C0 2.68 0 1.36 0 0 Z " fill="#44B572" transform="translate(120,92)"/>
<path d="M0 0 C0 19.47 0 38.94 0 59 C-20.33456968 66.26234631 -35.80790624 67.43258226 -57 67 C-57 68.65 -57 70.3 -57 72 C-52.49689317 72.86416236 -48.20003596 73.14982655 -43.61767578 73.20532227 C-42.90478897 73.21522186 -42.19190216 73.22512146 -41.45741272 73.23532104 C-39.12007882 73.26670405 -36.78272466 73.29160085 -34.4453125 73.31640625 C-32.81720475 73.33699586 -31.18910211 73.35799284 -29.56100464 73.37937927 C-25.2900406 73.43439277 -21.01902999 73.48389283 -16.74798584 73.53222656 C-12.38403207 73.58259354 -8.02014536 73.63820004 -3.65625 73.69335938 C4.89577651 73.80068723 13.44785938 73.9021878 22 74 C22.19227173 73.06075684 22.19227173 73.06075684 22.38842773 72.10253906 C23.22639954 69.22165556 24.63548958 68.46514287 27.0625 66.75 C44.81368953 53.42959711 54.15946154 34.71028394 57.45703125 13.0703125 C57.86247085 10.13313054 58.21039558 7.19288675 58.53393555 4.24560547 C58.6218486 3.44702118 58.70976166 2.64843689 58.80033875 1.82565308 C58.86622696 1.22318756 58.93211517 0.62072205 59 0 C64.22457906 -0.0754997 69.44882439 -0.12922164 74.67382812 -0.16479492 C76.44243923 -0.17966123 78.21101502 -0.19996029 79.97949219 -0.22631836 C106.82216477 -0.61567453 131.34179963 4.59479128 152 23 C152.74765625 23.65355469 153.4953125 24.30710938 154.265625 24.98046875 C165.55357653 35.49878722 172.45556374 48.80500072 178 63 C178.32613281 63.80695313 178.65226562 64.61390625 178.98828125 65.4453125 C190.36176848 96.12456524 187.00306042 133.4765478 174.12353516 163.00976562 C163.15172289 186.37113149 144.09333705 203.28594053 120 212 C117.10888672 212.87280273 117.10888672 212.87280273 114 213 C111.31860352 211.12915039 111.31860352 211.12915039 108.62890625 208.34765625 C108.14348862 207.85470566 107.65807098 207.36175507 107.15794373 206.85386658 C105.60899345 205.27243357 104.08622576 203.66821132 102.5625 202.0625 C101.54259703 201.01603453 100.52112586 199.97109502 99.49804688 198.92773438 C94.73084943 194.04048361 90.09715873 189.05562408 85.64331055 183.87963867 C82.57247919 180.36718427 79.33737708 177.00750779 76.125 173.625 C71.08026561 168.28988802 66.08181829 162.92637413 61.1953125 157.4453125 C58.53266411 154.47944436 55.83154543 151.55077518 53.125 148.625 C35.52934007 129.59866231 35.52934007 129.59866231 28.94921875 122.16796875 C27.77923794 120.86668748 26.58105018 119.58889936 25.33203125 118.36328125 C23.29985767 116.28556876 22.05702794 114.67984664 21.81079102 111.74438477 C21.83326904 110.94315186 21.85574707 110.14191895 21.87890625 109.31640625 C21.89638916 108.5076001 21.91387207 107.69879395 21.93188477 106.86547852 C21.95436279 106.24987061 21.97684082 105.6342627 22 105 C21.26247151 105.00460896 20.52494303 105.00921793 19.76506519 105.01396656 C1.821195 105.12437768 -16.12260743 105.20712337 -34.0667448 105.25906086 C-42.74440902 105.28484495 -51.42184653 105.3199992 -60.09936523 105.37719727 C-67.66251568 105.42702619 -75.22550195 105.45928953 -82.78881198 105.47044247 C-86.79379367 105.47696219 -90.79830565 105.49228893 -94.80313683 105.52865028 C-98.57315065 105.56260214 -102.34250155 105.5730549 -106.11265373 105.56553841 C-107.49577691 105.56691335 -108.87892237 105.57685161 -110.2619133 105.59602737 C-122.02352641 105.75110039 -122.02352641 105.75110039 -125.32121277 102.61552429 C-127.11267789 99.82444961 -127.64151616 98.3790737 -127.6640625 95.09375 C-127.67050781 94.18496094 -127.67695312 93.27617187 -127.68359375 92.33984375 C-127.66425781 91.40269531 -127.64492187 90.46554688 -127.625 89.5 C-127.64433594 88.56285156 -127.66367188 87.62570313 -127.68359375 86.66015625 C-127.67714844 85.75136719 -127.67070313 84.84257812 -127.6640625 83.90625 C-127.65560303 82.67358398 -127.65560303 82.67358398 -127.64697266 81.41601562 C-126.61811198 77.57390043 -125.27941012 76.27909871 -122 74 C-118.03954084 73.31213129 -114.14580168 73.41864813 -110.13671875 73.51171875 C-108.98959915 73.51879349 -107.84247955 73.52586823 -106.66059875 73.53315735 C-103.00223162 73.56111187 -99.34540337 73.62385714 -95.6875 73.6875 C-93.20510025 73.71258128 -90.72267648 73.73539474 -88.24023438 73.75585938 C-82.15963254 73.81094222 -76.07992622 73.89458102 -70 74 C-70.01776489 73.35155624 -70.03552979 72.70311249 -70.05383301 72.03501892 C-70.23116899 65.27053181 -70.35161995 58.50670721 -70.43945312 51.74047852 C-70.47962252 49.21741913 -70.53417058 46.69454525 -70.60351562 44.17211914 C-70.70084761 40.54006167 -70.74599414 36.91046977 -70.78125 33.27734375 C-70.82254028 32.15416245 -70.86383057 31.03098114 -70.90637207 29.87376404 C-70.91074621 22.19631619 -70.91074621 22.19631619 -68.29774475 18.76399231 C-64.14366018 15.05038014 -59.44721911 12.22126197 -54.4375 9.8125 C-53.74624023 9.47718262 -53.05498047 9.14186523 -52.34277344 8.79638672 C-35.74230013 1.02555013 -18.08679455 0 0 0 Z " fill="#E4E4E4" transform="translate(247,164)"/>
<path d="M0 0 C8.971875 -0.0825 17.94375 -0.165 27.1875 -0.25 C29.9927417 -0.28641602 32.7979834 -0.32283203 35.68823242 -0.36035156 C37.95230345 -0.37205178 40.21638301 -0.38224043 42.48046875 -0.390625 C44.19441833 -0.4213208 44.19441833 -0.4213208 45.94299316 -0.45263672 C59.00342749 -0.45819731 71.13199208 3.20820758 81.11328125 11.82421875 C89.92494252 20.80698024 98 36.23091871 98 49 C97.20118408 49.01981934 96.40236816 49.03963867 95.5793457 49.06005859 C45.19510099 49.88855406 45.19510099 49.88855406 0 70 C0 46.9 0 23.8 0 0 Z " fill="#CBCCCC" transform="translate(177,104)"/>
<path d="M0 0 C0 19.47 0 38.94 0 59 C-20.33456968 66.26234631 -35.80790624 67.43258226 -57 67 C-57 68.65 -57 70.3 -57 72 C-55.02 72.33 -53.04 72.66 -51 73 C-51 73.33 -51 73.66 -51 74 C-57.27 74 -63.54 74 -70 74 C-70.19813254 66.58031739 -70.34311115 59.16218221 -70.43945312 51.74047852 C-70.47962252 49.21741913 -70.53417058 46.69454525 -70.60351562 44.17211914 C-70.70084761 40.54006167 -70.74599414 36.91046977 -70.78125 33.27734375 C-70.82254028 32.15416245 -70.86383057 31.03098114 -70.90637207 29.87376404 C-70.91074621 22.19631619 -70.91074621 22.19631619 -68.29774475 18.76399231 C-64.14366018 15.05038014 -59.44721911 12.22126197 -54.4375 9.8125 C-53.74624023 9.47718262 -53.05498047 9.14186523 -52.34277344 8.79638672 C-35.74230013 1.02555013 -18.08679455 0 0 0 Z " fill="#CBCBCB" transform="translate(247,164)"/>
<path d="M0 0 C8.91 0 17.82 0 27 0 C27.0093457 2.38154297 27.01869141 4.76308594 27.02832031 7.21679688 C27.06215586 15.10389291 27.11774132 22.99072911 27.18390274 30.87761688 C27.22333593 35.65735709 27.25554477 40.43691421 27.27099609 45.21679688 C27.28619012 49.83358113 27.32068422 54.44986191 27.36830902 59.06642151 C27.38309456 60.82373162 27.39103939 62.58111361 27.39188385 64.33848572 C27.39426386 66.80887924 27.42142445 69.27789294 27.45410156 71.74804688 C27.4490712 72.46734375 27.44404083 73.18664062 27.43885803 73.92773438 C27.5764474 80.69336637 30.02912071 85.78276079 34.5 90.8125 C40.01581843 95.63884113 44.37348807 98.0872401 51.8125 98.625 C52.78832031 98.69976562 53.76414062 98.77453125 54.76953125 98.8515625 C55.87361328 98.92503906 55.87361328 98.92503906 57 99 C57 100.32 57 101.64 57 103 C28.29 103 -0.42 103 -30 103 C-30 101.68 -30 100.36 -30 99 C-29.41734375 98.99742187 -28.8346875 98.99484375 -28.234375 98.9921875 C-19.92896063 98.60042267 -11.68912731 95.86226325 -5.8359375 89.734375 C-1.87184287 83.83040427 -0.55359838 78.92813152 -0.56762695 71.86157227 C-0.5574353 71.08026443 -0.54724365 70.2989566 -0.53674316 69.49397278 C-0.50676678 66.93470954 -0.497371 64.37582151 -0.48828125 61.81640625 C-0.47142313 60.03277864 -0.45327137 58.24916282 -0.43388367 56.46556091 C-0.38650046 51.78854052 -0.35661569 47.11156798 -0.33044434 42.43438721 C-0.30057973 37.65472975 -0.25406972 32.87523696 -0.20898438 28.09570312 C-0.12308405 18.73053622 -0.05721974 9.3653861 0 0 Z " fill="#46B573" transform="translate(150,269)"/>
<path d="M0 0 C1.65 1.65 3.3 3.3 5 5 C5.65742188 5.64582031 6.31484375 6.29164063 6.9921875 6.95703125 C10.84192775 10.75086241 14.49543328 14.63771191 18.01953125 18.734375 C20.46605809 21.5331631 22.98078499 24.26688136 25.5 27 C29.12112513 30.93263943 32.68959413 34.90214575 36.19140625 38.94140625 C38.4301125 41.4895665 40.71410212 43.99410593 43 46.5 C49.6744186 53.83575581 49.6744186 53.83575581 52 56.4375 C52.804375 57.33275391 52.804375 57.33275391 53.625 58.24609375 C55 60 55 60 57 64 C38.19 64 19.38 64 0 64 C0 42.88 0 21.76 0 0 Z " fill="#D8D9D8" transform="translate(269,316)"/>
<path d="M0 0 C2.31 0 4.62 0 7 0 C7.5991727 8.90770074 6.93197207 16.68295945 4.625 25.3125 C4.40368408 26.14241455 4.18236816 26.9723291 3.9543457 27.82739258 C2.28698812 33.71301188 2.28698812 33.71301188 0 36 C0 24.12 0 12.24 0 0 Z " fill="#D1D5D2" transform="translate(269,164)"/>
<path d="M0 0 C7.2 -0.36 7.2 -0.36 10.5 1.125 C12 3 12 3 12.5 5.9375 C12 9 12 9 10.5 11.375 C6.86748926 13.73613198 4.28156703 13.2854378 0 13 C0 8.71 0 4.42 0 0 Z " fill="#2B2B2B" transform="translate(281,247)"/>
<path d="M0 0 C3.5625 0.3125 3.5625 0.3125 5.5 1.4375 C7.09240283 4.24762264 7.01569325 6.14014724 6.5625 9.3125 C4.9375 11.6875 4.9375 11.6875 2.5625 13.3125 C-0.5 13.8125 -0.5 13.8125 -3.4375 13.3125 C-5.375 11.75 -5.375 11.75 -6.4375 9.3125 C-5.98395669 0.54399606 -5.98395669 0.54399606 0 0 Z " fill="#161616" transform="translate(167.4375,246.6875)"/>
<path d="M0 0 C3.375 -0.125 3.375 -0.125 7 0 C7.66 0.66 8.32 1.32 9 2 C8.625 4.625 8.625 4.625 8 7 C7.34 7 6.68 7 6 7 C6.66 7.61875 7.32 8.2375 8 8.875 C10 11 10 11 10 13 C7.625 12.6875 7.625 12.6875 5 12 C4.34 11.01 3.68 10.02 3 9 C2.67 10.32 2.34 11.64 2 13 C1.34 13 0.68 13 0 13 C0 8.71 0 4.42 0 0 Z " fill="#030303" transform="translate(136,247)"/>
<path d="M0 0 C4 1 4 1 6.25 4.0625 C7.11625 5.5165625 7.11625 5.5165625 8 7 C8.33 4.69 8.66 2.38 9 0 C9.66 0 10.32 0 11 0 C11 4.29 11 8.58 11 13 C6.82200357 10.91100178 6.07608099 9.94455388 4 6 C3.67 8.31 3.34 10.62 3 13 C2.01 13 1.02 13 0 13 C0 8.71 0 4.42 0 0 Z " fill="#252525" transform="translate(190,247)"/>
<path d="M0 0 C1.32 0.33 2.64 0.66 4 1 C5.265625 3.21484375 5.265625 3.21484375 6.25 5.9375 C6.58515625 6.83339844 6.9203125 7.72929687 7.265625 8.65234375 C8 11 8 11 8 13 C7.01 12.67 6.02 12.34 5 12 C5 11.34 5 10.68 5 10 C2.69 10 0.38 10 -2 10 C-2 10.99 -2 11.98 -2 13 C-2.99 12.67 -3.98 12.34 -5 12 C-3.35 8.04 -1.7 4.08 0 0 Z " fill="#2D2D2D" transform="translate(313,247)"/>
<path d="M0 0 C1.4540625 0.0309375 1.4540625 0.0309375 2.9375 0.0625 C3.2675 1.0525 3.5975 2.0425 3.9375 3.0625 C0.9675 2.5675 0.9675 2.5675 -2.0625 2.0625 C-2.0625 3.0525 -2.0625 4.0425 -2.0625 5.0625 C-1.093125 5.31 -0.12375 5.5575 0.875 5.8125 C3.9375 7.0625 3.9375 7.0625 4.9375 9.0625 C4.9375 9.7225 4.9375 10.3825 4.9375 11.0625 C2.9375 13.0625 2.9375 13.0625 -0.0625 13.25 C-3.0625 13.0625 -3.0625 13.0625 -5.0625 12.0625 C-5.0625 11.0725 -5.0625 10.0825 -5.0625 9.0625 C-2.7525 9.7225 -0.4425 10.3825 1.9375 11.0625 C1.9375 10.0725 1.9375 9.0825 1.9375 8.0625 C1.15375 7.93875 0.37 7.815 -0.4375 7.6875 C-3.0625 7.0625 -3.0625 7.0625 -5.0625 5.0625 C-4.45789299 1.07209375 -4.2025713 0.08576676 0 0 Z " fill="#151515" transform="translate(341.0625,246.9375)"/>
<path d="M0 0 C2.5 0.125 2.5 0.125 3.5 1.125 C3.6875 4.0625 3.6875 4.0625 3.5 7.125 C2.84 7.785 2.18 8.445 1.5 9.125 C-1.125 8.75 -1.125 8.75 -3.5 8.125 C-3.54241723 5.79205225 -3.54092937 3.45797433 -3.5 1.125 C-2.5 0.125 -2.5 0.125 0 0 Z " fill="#D6D6D6" transform="translate(167.5,248.875)"/>
<path d="M0 0 C3.63 0 7.26 0 11 0 C11 0.66 11 1.32 11 2 C9.68 2 8.36 2 7 2 C7 5.63 7 9.26 7 13 C6.01 13 5.02 13 4 13 C4 9.37 4 5.74 4 2 C2.68 2 1.36 2 0 2 C0 1.34 0 0.68 0 0 Z " fill="#1E1E1E" transform="translate(236,247)"/>
<path d="M0 0 C1.66611905 -0.042721 3.33382885 -0.04063832 5 0 C6 1 6 1 6.0625 4.5625 C6.041875 5.696875 6.02125 6.83125 6 8 C4.02 8.33 2.04 8.66 0 9 C0 6.03 0 3.06 0 0 Z " fill="#D8D8D8" transform="translate(284,249)"/>
<path d="M0 0 C0.598125 0.350625 1.19625 0.70125 1.8125 1.0625 C1.4825 2.7125 1.1525 4.3625 0.8125 6.0625 C-0.1775 6.3925 -1.1675 6.7225 -2.1875 7.0625 C-2.1875 6.4025 -2.1875 5.7425 -2.1875 5.0625 C-3.1775 5.0625 -4.1675 5.0625 -5.1875 5.0625 C-5.1875 3.4125 -5.1875 1.7625 -5.1875 0.0625 C-2.1875 -0.9375 -2.1875 -0.9375 0 0 Z " fill="#636363" transform="translate(143.1875,247.9375)"/>
<path d="M0 0 C6.25882353 -0.36108597 6.25882353 -0.36108597 9.4375 1.1875 C11 3 11 3 11.25 5.6875 C11.1675 6.450625 11.085 7.21375 11 8 C10.34 8 9.68 8 9 8 C8.79375 7.195625 8.5875 6.39125 8.375 5.5625 C7.92125 4.716875 7.4675 3.87125 7 3 C3.94727535 2.10169161 3.94727535 2.10169161 1 2 C1 4.97 1 7.94 1 11 C0.67 11 0.34 11 0 11 C0 7.37 0 3.74 0 0 Z " fill="#060606" transform="translate(282,247)"/>
<path d="M0 0 C0.99 0 1.98 0 3 0 C3 4.29 3 8.58 3 13 C2.01 13 1.02 13 0 13 C0 8.71 0 4.42 0 0 Z " fill="#292929" transform="translate(218,247)"/>
<path d="M0 0 C0.66 0 1.32 0 2 0 C2 4.29 2 8.58 2 13 C0.68 12.34 -0.64 11.68 -2 11 C-2 10.01 -2 9.02 -2 8 C-1.34 8 -0.68 8 0 8 C0 5.36 0 2.72 0 0 Z " fill="#0B0B0B" transform="translate(199,247)"/>
<path d="M0 0 C3.375 -0.125 3.375 -0.125 7 0 C9 2 9 2 9.125 5.125 C9.08375 6.07375 9.0425 7.0225 9 8 C8.690625 7.360625 8.38125 6.72125 8.0625 6.0625 C7.1654837 4.06389179 7.1654837 4.06389179 6 3 C3.30917128 3.17635452 0.67148554 3.61835921 -2 4 C-1.34 2.68 -0.68 1.36 0 0 Z " fill="#0C0C0C" transform="translate(164,247)"/>
<path d="M0 0 C0.25 2.75 0.25 2.75 0 6 C-2 8.375 -2 8.375 -4 10 C-5.26339822 6.20980534 -4.49719015 4.62477616 -3 1 C-1 0 -1 0 0 0 Z " fill="#2E2E2E" transform="translate(174,250)"/>
<path d="M0 0 C2 0 2 0 4.625 2.375 C7 5 7 5 7 7 C4.625 6.6875 4.625 6.6875 2 6 C0 3 0 3 0 0 Z " fill="#151515" transform="translate(139,253)"/>
<path d="M0 0 C1.4540625 0.0309375 1.4540625 0.0309375 2.9375 0.0625 C3.2675 1.0525 3.5975 2.0425 3.9375 3.0625 C0.9675 2.5675 0.9675 2.5675 -2.0625 2.0625 C-2.3925 2.7225 -2.7225 3.3825 -3.0625 4.0625 C-4.0525 4.5575 -4.0525 4.5575 -5.0625 5.0625 C-3.9375 0.08035714 -3.9375 0.08035714 0 0 Z " fill="#202020" transform="translate(341.0625,246.9375)"/>
<path d="M0 0 C0.185625 0.9590625 0.185625 0.9590625 0.375 1.9375 C0.684375 2.9584375 0.684375 2.9584375 1 4 C1.66 4.33 2.32 4.66 3 5 C1.68 6.32 0.36 7.64 -1 9 C-1.33 8.01 -1.66 7.02 -2 6 C-1.34 6 -0.68 6 0 6 C0 4.02 0 2.04 0 0 Z " fill="#333333" transform="translate(290,251)"/>
<path d="M0 0 C1.65 0.33 3.3 0.66 5 1 C5 1.99 5 2.98 5 4 C3.35 3.67 1.7 3.34 0 3 C0 2.01 0 1.02 0 0 Z " fill="#D0D0D0" transform="translate(338,254)"/>
</svg>
