<?xml version="1.0" encoding="UTF-8"?>
<svg version="1.1" xmlns="http://www.w3.org/2000/svg" width="500" height="500">
<path d="M0 0 C165 0 330 0 500 0 C500 165 500 330 500 500 C335 500 170 500 0 500 C0 335 0 170 0 0 Z " fill="#E0E0E0" transform="translate(0,0)"/>
<path d="M0 0 C8.39802582 -0.0932198 16.79583072 -0.16402559 25.1942482 -0.20724869 C29.09518125 -0.22800741 32.99575692 -0.25610641 36.89648438 -0.30175781 C40.67017818 -0.3456395 44.44353112 -0.36922486 48.21746063 -0.37950897 C49.64779771 -0.38682534 51.07811892 -0.40110946 52.50830841 -0.42292023 C65.30344556 -0.61005522 77.02870556 1.40934633 87 10 C94.00724457 17.11847067 98.207298 25.60982916 98.25 35.6875 C98.18735707 37.12605016 98.11210314 38.56445704 98 40 C98.83015625 39.98839844 99.6603125 39.97679687 100.515625 39.96484375 C105.01146085 39.93192445 109.50434167 39.95262005 114 40 C115.07185547 40.01111816 116.14371094 40.02223633 117.24804688 40.03369141 C144.23257213 40.40784659 168.85942468 44.07015256 188.71289062 64.1015625 C202.22395528 78.51809929 207.84131079 97.88334337 207.3046875 117.3359375 C206.29681569 136.9186368 199.9084568 154.86203071 186 169 C181.29782172 173.21090592 176.45603328 176.82698774 171 180 C173.9615696 181.4807848 176.83506295 181.35314037 180.125 181.5625 C181.40632812 181.64628906 182.68765625 181.73007812 184.0078125 181.81640625 C184.99523437 181.87699219 185.98265625 181.93757812 187 182 C186.67 182.99 186.34 183.98 186 185 C179.28307071 186.49010377 172.47618884 185.99109088 165.64453125 185.78515625 C159.78674757 185.70244043 154.51861362 186.23235417 148.79248047 187.49780273 C139.42451359 189.38892499 130.24104172 189.38206501 120.71875 189.29296875 C118.92558146 189.28735601 117.13240824 189.28309388 115.3392334 189.28010559 C110.67696869 189.26878862 106.01499568 189.23943893 101.35284424 189.20599365 C96.57250918 189.17500498 91.79212584 189.16153946 87.01171875 189.14648438 C77.67435277 189.11455313 68.33720088 189.06352131 59 189 C59 188.34 59 187.68 59 187 C60.85625 186.566875 60.85625 186.566875 62.75 186.125 C67.11401908 185.10325385 67.11401908 185.10325385 71 183 C73.46923778 178.78433916 74.39455672 175.5902611 74.51513672 170.72607422 C74.55041473 169.50395233 74.58569275 168.28183044 74.62203979 167.02267456 C74.65057541 165.05852097 74.65057541 165.05852097 74.6796875 163.0546875 C74.69066593 162.38011631 74.70164436 161.70554512 74.71295547 161.01053238 C74.76948544 157.43704094 74.80739834 153.86389586 74.83056641 150.29003906 C74.85263881 147.35578891 74.9081677 144.42523652 74.99462891 141.4921875 C76.40976683 123.66824385 76.40976683 123.66824385 70.24636841 107.87698364 C67.99380527 105.7105016 65.48143231 103.89587352 63 102 C60.525 98.535 60.525 98.535 58 95 C68.23 95 78.46 95 89 95 C89.495 102.425 89.495 102.425 90 110 C91.90729594 113.73107103 91.90729594 113.73107103 94.875 116.1875 C95.88762233 117.16312553 96.89931598 118.13971571 97.91015625 119.1171875 C98.42723145 119.59381836 98.94430664 120.07044922 99.47705078 120.56152344 C101.89856509 122.84872484 104.08893215 125.33452692 106.3125 127.8125 C107.22104694 128.80616136 108.13124766 129.79831274 109.04296875 130.7890625 C109.51524902 131.30243164 109.9875293 131.81580078 110.47412109 132.34472656 C132.07186754 159.31196842 132.07186754 159.31196842 160 175 C172.02681119 168.78116751 180.16568933 157.36550682 185 145 C186.62167291 139.73620926 187.81936824 134.3764154 189 129 C189.1757959 128.35893311 189.3515918 127.71786621 189.53271484 127.05737305 C193.64866054 108.9355996 188.42117394 88.4279193 179.1328125 72.78222656 C170.93114582 59.87874235 158.71369704 52.78152138 144.26757812 48.81420898 C135.57836266 46.92159476 126.47207119 47.31302586 117.625 47.25 C115.61716247 47.22177999 113.60934829 47.19184438 111.6015625 47.16015625 C106.73441779 47.08701547 101.86754806 47.03700587 97 47 C96.86335938 47.9288501 96.72671875 48.8577002 96.5859375 49.81469727 C95.75074574 54.35500849 93.57666804 57.88535807 91.375 61.90234375 C89.60174761 65.51798576 89.60174761 65.51798576 89 72 C79.76 72 70.52 72 61 72 C63.43031167 69.56968833 65.93480985 68.52542424 69.02734375 67.09765625 C71.90688183 65.49542319 71.90688183 65.49542319 74 63 C74.37674518 60.20748417 74.60191941 57.61220799 74.6875 54.8125 C74.72166016 54.06291016 74.75582031 53.31332031 74.79101562 52.54101562 C74.87334294 50.69453162 74.93835281 48.84729006 75 47 C50.89734762 49.25053037 50.89734762 49.25053037 31 62 C30.53709779 64.66242821 30.53709779 64.66242821 30.375 67.625 C30.25125 69.39875 30.1275 71.1725 30 73 C25.38 73 20.76 73 16 73 C15.9906543 71.1835498 15.98130859 69.36709961 15.97167969 67.49560547 C15.93609596 61.48039321 15.88226258 55.46557392 15.81609726 49.45063591 C15.77666111 45.80528898 15.74445412 42.16018219 15.72900391 38.51464844 C15.71381121 34.99356924 15.67932118 31.47315041 15.63169098 27.95236588 C15.60972868 25.96174418 15.60752851 23.97093606 15.60565186 21.98019409 C15.56134235 13.15328533 15.56134235 13.15328533 11 6 C7.41456728 3.78771172 4.15917236 2.61164299 0 2 C0 1.34 0 0.68 0 0 Z " fill="#45B572" transform="translate(149,167)"/>
<path d="M0 0 C4.90875 -0.0825 9.8175 -0.165 14.875 -0.25 C16.40237793 -0.28641602 17.92975586 -0.32283203 19.50341797 -0.36035156 C28.15665581 -0.43041827 36.29717556 -0.14916479 43.09863281 5.8515625 C49.33688888 12.29901792 53.19489205 20.74734064 53.0625 29.75 C53.05347656 30.54921875 53.04445312 31.3484375 53.03515625 32.171875 C53.02355469 32.77515625 53.01195312 33.3784375 53 34 C52.25016846 34.06993164 51.50033691 34.13986328 50.7277832 34.21191406 C25.86397347 36.07076089 25.86397347 36.07076089 4 47 C2.68 47.99 1.36 48.98 0 50 C0 33.5 0 17 0 0 Z " fill="#DCDFDD" transform="translate(178,173)"/>
<path d="M0 0 C5.63718821 5.63718821 5.63718821 5.63718821 8.0859375 8.26953125 C8.88801636 9.13167236 8.88801636 9.13167236 9.70629883 10.01123047 C10.25697021 10.60564941 10.8076416 11.20006836 11.375 11.8125 C11.95080811 12.4327002 12.52661621 13.05290039 13.11987305 13.69189453 C16.06858768 16.87768965 18.98007791 20.08468057 21.8125 23.375 C31.22148102 34.18044779 42.05858482 43.64633363 55 50 C54 52 54 52 52.25274658 52.61790466 C49.77661294 53.03788937 47.46809946 53.11986894 44.95605469 53.11352539 C43.43407471 53.11334412 43.43407471 53.11334412 41.88134766 53.11315918 C40.29265869 53.10548523 40.29265869 53.10548523 38.671875 53.09765625 C37.69299316 53.09664917 36.71411133 53.09564209 35.70556641 53.09460449 C32.053699 53.08937785 28.40184831 53.07541658 24.75 53.0625 C12.49875 53.0315625 12.49875 53.0315625 0 53 C0 35.51 0 18.02 0 0 Z " fill="#DDE0DE" transform="translate(238,297)"/>
<path d="M0 0 C4.62 0 9.24 0 14 0 C14.0093457 1.27117676 14.01869141 2.54235352 14.02832031 3.85205078 C14.0682865 8.58238362 14.13406414 13.31207062 14.20751953 18.04199219 C14.23569066 20.08650395 14.25692435 22.13112384 14.27099609 24.17578125 C14.29247887 27.12035322 14.3391569 30.06363041 14.390625 33.0078125 C14.39185364 33.9174173 14.39308228 34.82702209 14.39434814 35.76419067 C14.52485823 41.45910957 15.29621744 44.61384997 19 49 C22.30321138 51.39198065 26.01633287 51.5403461 30 52 C30 52.66 30 53.32 30 54 C14.49 54 -1.02 54 -17 54 C-17 53.34 -17 52.68 -17 52 C-16.40832031 51.90203125 -15.81664062 51.8040625 -15.20703125 51.703125 C-10.16626836 50.74924491 -6.68851724 49.80029049 -3 46 C-1.29892466 43.14160923 -0.74098922 41.00140361 -0.68115234 37.69042969 C-0.66128265 36.84986023 -0.64141296 36.00929077 -0.62094116 35.14324951 C-0.60361435 33.79616913 -0.60361435 33.79616913 -0.5859375 32.421875 C-0.56657135 31.4953009 -0.5472052 30.56872681 -0.5272522 29.61407471 C-0.46755233 26.65947629 -0.42110932 23.70483871 -0.375 20.75 C-0.3368114 18.74477483 -0.29775915 16.73956591 -0.2578125 14.734375 C-0.1618586 9.82304889 -0.07779197 4.911646 0 0 Z " fill="#48B674" transform="translate(165,261)"/>
<path d="M0 0 C1.9375 0.75 1.9375 0.75 3.9375 2.75 C3.36931818 8.31818182 3.36931818 8.31818182 1.9375 9.75 C-0.5 9.9375 -0.5 9.9375 -3.0625 9.75 C-5.0625 7.75 -5.0625 7.75 -5.375 4.75 C-5.271875 3.76 -5.16875 2.77 -5.0625 1.75 C-2.0625 -0.25 -2.0625 -0.25 0 0 Z " fill="#2D2D2D" transform="translate(189.0625,244.25)"/>
<path d="M0 0 C2.875 -0.125 2.875 -0.125 6 0 C8 2 8 2 8.25 4.5 C8 7 8 7 6 9 C2.875 9.125 2.875 9.125 0 9 C0 6.03 0 3.06 0 0 Z " fill="#272727" transform="translate(270,245)"/>
<path d="M0 0 C1.65 0 3.3 0 5 0 C5.66 0.66 6.32 1.32 7 2 C6.625 4.625 6.625 4.625 6 7 C6.66 7.33 7.32 7.66 8 8 C8 8.66 8 9.32 8 10 C6.0625 9.625 6.0625 9.625 4 9 C3.67 8.34 3.34 7.68 3 7 C2.67 7.99 2.34 8.98 2 10 C1.34 10 0.68 10 0 10 C0 6.7 0 3.4 0 0 Z " fill="#484848" transform="translate(165,244)"/>
<path d="M0 0 C3.73639216 1.24546405 4.18756513 2.63404953 6 6 C6.33 4.35 6.66 2.7 7 1 C7.33 1 7.66 1 8 1 C8 3.97 8 6.94 8 10 C6.35 8.35 4.7 6.7 3 5 C2.67 6.65 2.34 8.3 2 10 C1.34 10 0.68 10 0 10 C0 6.7 0 3.4 0 0 Z " fill="#262626" transform="translate(204,244)"/>
<path d="M0 0 C3 1 3 1 3.94921875 2.84765625 C4.19285156 3.57855469 4.43648438 4.30945313 4.6875 5.0625 C5.06455078 6.16271484 5.06455078 6.16271484 5.44921875 7.28515625 C5.63097656 7.85105469 5.81273437 8.41695312 6 9 C5.34 9 4.68 9 4 9 C4 8.34 4 7.68 4 7 C2.35 7 0.7 7 -1 7 C-1 7.66 -1 8.32 -1 9 C-1.66 9 -2.32 9 -3 9 C-2.01 6.03 -1.02 3.06 0 0 Z " fill="#1B1B1B" transform="translate(292,245)"/>
<path d="M0 0 C2.0625 0.4375 2.0625 0.4375 4 1 C4 1.66 4 2.32 4 3 C2.68 2.67 1.36 2.34 0 2 C0.33 2.66 0.66 3.32 1 4 C1.99 4.33 2.98 4.66 4 5 C3.67 6.65 3.34 8.3 3 10 C1.35 9.67 -0.3 9.34 -2 9 C-1.67 8.34 -1.34 7.68 -1 7 C-0.01 7 0.98 7 2 7 C0.68 6.34 -0.64 5.68 -2 5 C-1.125 1.125 -1.125 1.125 0 0 Z " fill="#232323" transform="translate(311,244)"/>
<path d="M0 0 C2.64 0 5.28 0 8 0 C8 0.66 8 1.32 8 2 C7.01 2 6.02 2 5 2 C5 4.64 5 7.28 5 10 C4.34 10 3.68 10 3 10 C3 7.36 3 4.72 3 2 C2.01 2 1.02 2 0 2 C0 1.34 0 0.68 0 0 Z " fill="#3D3D3D" transform="translate(237,244)"/>
<path d="M0 0 C2.0625 0.4375 2.0625 0.4375 4 1 C3.67 2.65 3.34 4.3 3 6 C1.68 6 0.36 6 -1 6 C-1.042721 4.33388095 -1.04063832 2.66617115 -1 1 C-0.67 0.67 -0.34 0.34 0 0 Z " fill="#D7D7D7" transform="translate(187,246)"/>
<path d="M0 0 C1.32 0.33 2.64 0.66 4 1 C4 2.65 4 4.3 4 6 C2.68 6 1.36 6 0 6 C0 4.02 0 2.04 0 0 Z " fill="#D5D5D5" transform="translate(272,246)"/>
<path d="M0 0 C2 2 2 2 2 5 C0.68 5 -0.64 5 -2 5 C-2 5.66 -2 6.32 -2 7 C-2.66 7 -3.32 7 -4 7 C-3.67 5.35 -3.34 3.7 -3 2 C-2.34 2 -1.68 2 -1 2 C-0.67 1.34 -0.34 0.68 0 0 Z " fill="#545454" transform="translate(293,247)"/>
</svg>
